<?xml version="1.0" encoding="utf-8"?>
<!-- Generator: Adobe Illustrator 16.0.0, SVG Export Plug-In . SVG Version: 6.00 Build 0)  -->
<!DOCTYPE svg PUBLIC "-//W3C//DTD SVG 1.1//EN" "http://www.w3.org/Graphics/SVG/1.1/DTD/svg11.dtd">
<svg version="1.1" id="Слой_1" xmlns="http://www.w3.org/2000/svg" xmlns:xlink="http://www.w3.org/1999/xlink" x="0px" y="0px"
	 width="595.279px" height="841.891px" viewBox="0 0 595.279 841.891" enable-background="new 0 0 595.279 841.891"
	 xml:space="preserve">
<g>
	<path fill="#FFFFFF" d="M167.602,427.586v4.45h-1.306v-3.241h-12.722v3.241h-1.306v-4.45h1.354c0.943-1.064,1.742-2.781,1.742-6.07
		v-9.65h10.448v15.721H167.602z M155.147,427.586h9.384v-14.511h-7.884v8.464C156.647,424.635,155.969,426.425,155.147,427.586z"/>
	<path fill="#FFFFFF" d="M189.001,414.235l-10.013,14.56h-1.113v-16.93h1.282v14.56l9.989-14.56h1.137v16.93h-1.282V414.235z"/>
	<path fill="#FFFFFF" d="M212.14,424.297c0,2.708-2.177,4.764-5.708,4.764c-3.337,0-5.127-1.668-5.829-3.724l1.113-0.605
		c0.459,1.669,1.814,3.12,4.716,3.12c2.806,0,4.402-1.499,4.402-3.555c0-1.983-1.451-3.531-3.966-3.531h-1.911v-1.209h1.354
		c2.442,0,3.918-1.451,3.918-3.362c0-1.935-1.524-3.386-3.894-3.386c-2.467,0-3.749,1.233-4.353,2.781l-1.064-0.604
		c0.798-1.911,2.467-3.386,5.417-3.386c3.096,0,5.176,2.007,5.176,4.595c0,1.717-0.943,3.12-2.515,3.846
		C210.979,420.717,212.14,422.289,212.14,424.297z"/>
	<path fill="#FFFFFF" d="M232.208,424.49h-8.489l-1.645,4.305h-1.354l6.578-16.93h1.354l6.554,16.93h-1.354L232.208,424.49z
		 M231.749,423.28l-3.773-9.843l-3.773,9.843H231.749z"/>
	<path fill="#FFFFFF" d="M256.05,414.235l-10.013,14.56h-1.113v-16.93h1.282v14.56l9.989-14.56h1.137v16.93h-1.282V414.235z
		 M248.045,408.697h6.119v1.064h-6.119V408.697z"/>
	<path fill="#FFFFFF" d="M281.197,411.865v16.93h-1.282v-8.102h-9.844v8.102h-1.282v-16.93h1.282v7.618h9.844v-7.618H281.197z"/>
	<path fill="#FFFFFF" d="M305.398,420.33c0-4.837,3.651-8.731,8.803-8.731c3.12,0,5.853,1.596,7.256,4.063l-1.137,0.653
		c-1.112-2.08-3.459-3.483-6.119-3.483c-4.45,0-7.521,3.338-7.521,7.498c0,4.16,3.071,7.497,7.521,7.497
		c2.685,0,5.055-1.427,6.167-3.555l1.137,0.653c-1.378,2.49-4.136,4.135-7.304,4.135
		C309.049,429.061,305.398,425.167,305.398,420.33z"/>
	<path fill="#FFFFFF" d="M341.935,413.075h-5.321v15.72h-1.306v-15.72h-5.32v-1.209h11.947V413.075z"/>
	<path fill="#FFFFFF" d="M363.115,411.865l-5.635,13.229c-1.186,2.781-2.854,3.869-5.151,3.7v-1.186
		c1.813,0.194,2.999-0.628,3.869-2.66l0.291-0.677l-5.95-12.407h1.33l5.225,10.956l4.691-10.956H363.115z"/>
	<path fill="#FFFFFF" d="M385.24,427.586v4.45h-1.306v-3.241h-12.722v3.241h-1.306v-4.45h1.354c0.943-1.064,1.741-2.781,1.741-6.07
		v-9.65h10.448v15.721H385.24z M372.785,427.586h9.384v-14.511h-7.885v8.464C374.284,424.635,373.608,426.425,372.785,427.586z"/>
	<path fill="#FFFFFF" d="M406.639,414.235l-10.013,14.56h-1.112v-16.93h1.281v14.56l9.988-14.56h1.137v16.93h-1.281V414.235z"/>
	<path fill="#FFFFFF" d="M430.334,428.795h-1.281v-6.941h-4.644l-4.789,6.941h-1.451l4.813-6.989
		c-2.443-0.314-4.329-2.419-4.329-4.934c0-2.757,2.225-5.006,4.981-5.006h6.699V428.795z M429.053,420.645v-7.57h-5.418
		c-2.031,0-3.7,1.693-3.7,3.797c0,2.08,1.669,3.773,3.7,3.773H429.053z"/>
</g>
</svg>
