<?xml version="1.0" encoding="utf-8"?>
<!-- Generator: Adobe Illustrator 16.0.0, SVG Export Plug-In . SVG Version: 6.00 Build 0)  -->
<!DOCTYPE svg PUBLIC "-//W3C//DTD SVG 1.1//EN" "http://www.w3.org/Graphics/SVG/1.1/DTD/svg11.dtd">
<svg version="1.1" id="Слой_1" xmlns="http://www.w3.org/2000/svg" xmlns:xlink="http://www.w3.org/1999/xlink" x="0px" y="0px"
	 width="785.33px" height="184.869px" viewBox="0 0 785.33 184.869" enable-background="new 0 0 785.33 184.869"
	 xml:space="preserve">
<g>
	<path fill="#FFFFFF" d="M0,103.455h14.101V3.485H0V1.109h43.728v2.376H29.627v99.97h33.904c8.873,0,9.665-8.396,12.992-28.992
		h2.535c0,0-2.376,13.941-2.376,31.369H0V103.455z"/>
	<path fill="#FFFFFF" d="M152.723,103.455h14.101V3.485h-14.101V1.109h45.628c37.073,0,52.758,19.962,52.758,50.698
		c0,29.943-14.576,54.025-52.758,54.025h-45.628V103.455z M198.668,103.455c23.765,0,35.489-17.268,35.489-49.905
		c0-34.063-11.724-50.065-35.489-50.065H182.35v99.97H198.668z"/>
	<path fill="#FFFFFF" d="M279.467,103.455h14.101V3.485h-14.101V1.109h79.691c0,0-3.327,12.516-4.594,29.627h-2.376V13.625
		c0-9.823-1.584-10.14-7.13-10.14h-35.964v49.431h25.349V38.974h2.376v31.687h-2.376V55.292h-25.349v48.163h35.014
		c8.872,0,9.664-8.396,12.991-28.992h2.535c0,0-2.376,14.417-2.376,31.369h-77.791V103.455z"/>
	<path fill="#FFFFFF" d="M393.06,105.832c0,0,1.109-10.932,1.109-20.754V72.245h2.376v8.238c0,12.676,12.675,24.082,31.528,24.082
		c14.417,0,25.508-7.129,25.508-19.645c0-27.092-60.046-14.735-60.046-54.026C393.536,13.15,404.467,0,426.172,0
		c12.199,0,19.012,4.594,22.497,8.08c4.278-0.159,5.545-2.535,7.13-6.971h2.06c0,0-3.011,15.368-3.011,22.181v9.347h-2.376v-9.03
		c0-11.882-9.506-21.23-26.3-21.23c-16.16,0-24.874,8.397-24.874,21.23c0,26.933,60.046,13.784,60.046,53.233
		c0,15.367-10.298,30.102-33.271,30.102c-14.101,0-22.656-5.545-27.251-10.139c-3.326,0.633-5.069,5.703-5.703,9.029H393.06z"/>
	<path fill="#FFFFFF" d="M491.284,103.455h14.101V3.485h-14.101V1.109h43.728v2.376h-14.101v99.97h14.101v2.377h-43.728V103.455z"/>
	<path fill="#FFFFFF" d="M646.071,105.832c0,0-1.743-5.545-5.704-6.654c-5.228,3.961-13.467,7.764-29.468,7.764
		c-27.092,0-47.688-21.072-47.688-53.55C563.21,21.388,582.54,0,612.325,0c12.199,0,20.438,4.436,25.508,9.823
		c4.911,0,6.337-3.485,7.921-8.714h2.06c0,0-3.01,15.368-3.01,22.181v10.457h-2.377v-6.021c0-15.209-12.674-25.349-30.102-25.349
		c-27.25,0-32.162,26.617-32.162,52.124c0,28.359,8.397,50.064,30.736,50.064c8.555,0,23.289-2.693,23.289-16.477v-23.13h-15.685
		v-2.377h39.291v2.377h-9.348v40.875H646.071z"/>
	<path fill="#FFFFFF" d="M682.824,103.455h4.753c6.971,0,9.506-3.484,9.506-9.506V10.773c-3.327-4.436-5.228-7.288-12.991-7.288
		h-2.852V1.109h27.726l59.729,79.692v-67.81c0-6.02-2.535-9.506-9.506-9.506h-4.753V1.109h30.895v2.376h-4.911
		c-6.972,0-9.348,3.486-9.348,9.506v93.634h-2.377l-69.234-92.683v80.007c0,6.021,2.376,9.506,9.348,9.506h4.911v2.377h-30.895
		V103.455z"/>
</g>
<g>
	<path fill="#FFFFFF" d="M151.263,182.65v-8.103h2.829c3.669-6.536,4.931-16.551,4.931-25.304h15.748v25.304h3.287v8.103h-1.453V176
		h-23.89v6.65H151.263z M155.773,174.548h17.43v-23.852h-12.69C160.322,158.952,159.061,168.432,155.773,174.548z"/>
	<path fill="#FFFFFF" d="M214.605,176v-21.902c0-0.764,0-1.49,0-2.255L195.914,176h-1.338v-26.756h1.529v21.863
		c0,0.765,0,1.567,0,2.332l18.653-24.195h1.376V176H214.605z"/>
	<path fill="#FFFFFF" d="M242.286,176.421c-3.899,0-6.689-0.574-9.25-1.683v-1.49c2.522,1.146,5.351,1.72,9.135,1.72
		c4.166,0,8.83-1.528,8.83-6.269c0-4.625-4.74-5.925-8.83-5.925h-5.084v-1.452h4.931c4.74,0,7.874-2.025,7.874-5.428
		c0-3.898-3.593-5.619-8.104-5.619c-3.364,0-5.695,0.573-8.294,1.759v-1.491c2.446-1.146,4.893-1.72,8.409-1.72
		c5.236,0,9.518,2.255,9.518,6.918c0,3.479-2.523,5.619-6.078,6.27c3.44,0.42,7.186,2.255,7.186,6.804
		C252.53,174.433,247.025,176.421,242.286,176.421z"/>
	<path fill="#FFFFFF" d="M265.875,176l12.155-26.756h1.72L291.867,176h-1.605l-3.555-7.798h-15.671L267.519,176H265.875z
		 M271.686,166.788h14.448l-6.918-15.327c-0.115-0.229-0.191-0.459-0.306-0.688c-0.115,0.229-0.191,0.459-0.306,0.688
		L271.686,166.788z"/>
	<path fill="#FFFFFF" d="M327.765,176v-21.902c0-0.764,0-1.49,0-2.255L309.074,176h-1.338v-26.756h1.529v21.863
		c0,0.765,0,1.567,0,2.332l18.653-24.195h1.376V176H327.765z M323.408,144.657v-1.491c-1.605,1.262-3.096,1.682-4.893,1.682
		c-1.797,0-3.287-0.42-4.893-1.682v1.491c1.452,1.185,3.096,1.605,4.893,1.605C320.312,146.263,321.955,145.842,323.408,144.657z"/>
	<path fill="#FFFFFF" d="M370.046,149.244V176h-1.529v-12.729h-18.5V176h-1.529v-26.756h1.529v12.575h18.5v-12.575H370.046z"/>
	<path fill="#FFFFFF" d="M422.69,148.823c2.676,0,5.313,0.649,7.492,1.835v1.528c-2.026-1.223-4.664-1.911-7.301-1.911
		c-6.078,0-12.461,4.129-12.499,12.652c0,8.218,6.498,12.04,12.575,12.04c2.943,0,5.466-0.688,7.53-1.949v1.529
		c-2.141,1.185-4.816,1.873-7.798,1.873c-6.65,0-13.837-4.435-13.837-13.493C408.891,153.562,415.924,148.823,422.69,148.823z"/>
	<path fill="#FFFFFF" d="M465.85,149.244v1.452h-10.053V176h-1.529v-25.304h-10.053v-1.452H465.85z"/>
	<path fill="#FFFFFF" d="M483.323,176.421c-0.994,0-2.103-0.153-3.058-0.459v-1.414c0.803,0.229,1.796,0.42,2.828,0.42
		c2.408,0,4.243-1.032,6.23-4.587l0.459-0.917l-11.467-20.22h1.682l10.588,18.768l9.441-18.768h1.644l-10.397,20.679
		C488.636,175.159,486.152,176.421,483.323,176.421z"/>
	<path fill="#FFFFFF" d="M511.919,182.65v-8.103h2.829c3.669-6.536,4.931-16.551,4.931-25.304h15.748v25.304h3.287v8.103h-1.452V176
		h-23.89v6.65H511.919z M516.43,174.548h17.43v-23.852h-12.69C520.979,158.952,519.717,168.432,516.43,174.548z"/>
	<path fill="#FFFFFF" d="M575.262,176v-21.902c0-0.764,0-1.49,0-2.255L556.571,176h-1.338v-26.756h1.529v21.863
		c0,0.765,0,1.567,0,2.332l18.652-24.195h1.377V176H575.262z"/>
	<path fill="#FFFFFF" d="M593.539,176l8.18-10.512c-4.128-0.803-7.186-3.439-7.186-8.026c0-5.504,4.472-8.218,9.938-8.218h9.747V176
		h-1.49v-10.282h-8.257c-0.382,0-0.726,0-1.07-0.038L595.374,176H593.539z M604.432,164.266h8.295v-13.569h-8.295
		c-4.701,0-8.332,2.217-8.332,6.766C596.1,162.049,599.731,164.266,604.432,164.266z"/>
</g>
</svg>
