<?xml version="1.0" encoding="utf-8"?>
<!-- Generator: Adobe Illustrator 16.0.0, SVG Export Plug-In . SVG Version: 6.00 Build 0)  -->
<!DOCTYPE svg PUBLIC "-//W3C//DTD SVG 1.1//EN" "http://www.w3.org/Graphics/SVG/1.1/DTD/svg11.dtd">
<svg version="1.1" id="Слой_1" xmlns="http://www.w3.org/2000/svg" xmlns:xlink="http://www.w3.org/1999/xlink" x="0px" y="0px"
	 width="960px" height="150px" viewBox="0 0 960 150" enable-background="new 0 0 960 150" xml:space="preserve">
<g>
	<path fill="#FFFFFF" d="M162.723,101.353V90.448h3.807c4.939-8.798,6.636-22.276,6.636-34.057h21.195v34.057h4.423v10.904h-1.955
		v-8.95h-32.152v8.95H162.723z M168.794,90.448h23.457V58.347h-17.079C174.915,69.458,173.217,82.216,168.794,90.448z"/>
	<path fill="#FFFFFF" d="M247.947,92.402V62.925c0-1.028,0-2.007,0-3.036l-25.155,32.513h-1.801V56.392h2.059v29.426
		c0,1.029,0,2.109,0,3.14l25.104-32.565h1.852v36.011H247.947z"/>
	<path fill="#FFFFFF" d="M285.177,92.968c-5.248,0-9.002-0.771-12.45-2.263V88.7c3.395,1.54,7.202,2.313,12.296,2.313
		c5.606,0,11.882-2.057,11.882-8.438c0-6.225-6.379-7.974-11.882-7.974h-6.843v-1.955h6.637c6.379,0,10.597-2.727,10.597-7.305
		c0-5.247-4.835-7.562-10.906-7.562c-4.527,0-7.666,0.772-11.163,2.367v-2.007c3.292-1.543,6.584-2.315,11.317-2.315
		c7.047,0,12.81,3.036,12.81,9.312c0,4.682-3.396,7.562-8.18,8.437c4.629,0.566,9.672,3.036,9.672,9.159
		C298.964,90.292,291.556,92.968,285.177,92.968z"/>
	<path fill="#FFFFFF" d="M316.904,92.402l16.359-36.011h2.314l16.308,36.011h-2.161l-4.784-10.495h-21.092l-4.733,10.495H316.904z
		 M324.724,80.006h19.445l-9.311-20.63c-0.154-0.31-0.257-0.618-0.411-0.926c-0.155,0.309-0.257,0.617-0.412,0.926L324.724,80.006z"
		/>
	<path fill="#FFFFFF" d="M400.175,92.402V62.925c0-1.028,0-2.007,0-3.036l-25.156,32.513h-1.801V56.392h2.059v29.426
		c0,1.029,0,2.109,0,3.14l25.104-32.565h1.852v36.011H400.175z M394.31,50.219v-2.007c-2.16,1.698-4.167,2.264-6.585,2.264
		c-2.417,0-4.423-0.566-6.584-2.264v2.007c1.955,1.594,4.168,2.16,6.584,2.16C390.143,52.378,392.355,51.812,394.31,50.219z"/>
	<path fill="#FFFFFF" d="M457.054,56.392v36.011h-2.057V75.271h-24.898v17.131h-2.059V56.392h2.059v16.925h24.898V56.392H457.054z"
		/>
	<path fill="#FFFFFF" d="M527.867,55.825c3.602,0,7.15,0.876,10.082,2.47v2.058c-2.727-1.646-6.275-2.572-9.825-2.572
		c-8.181,0-16.771,5.556-16.822,17.029c0,11.06,8.746,16.205,16.926,16.205c3.962,0,7.355-0.927,10.134-2.624v2.059
		c-2.88,1.593-6.48,2.52-10.494,2.52c-8.951,0-18.623-5.968-18.623-18.159C509.296,62.205,518.761,55.825,527.867,55.825z"/>
	<path fill="#FFFFFF" d="M585.93,56.392v1.956h-13.528v34.055h-2.06V58.347h-13.528v-1.956H585.93z"/>
	<path fill="#FFFFFF" d="M609.425,92.968c-1.336,0-2.828-0.205-4.114-0.618v-1.901c1.081,0.309,2.417,0.565,3.806,0.565
		c3.242,0,5.711-1.389,8.385-6.172l0.618-1.235l-15.432-27.215h2.262l14.252,25.259l12.705-25.259h2.213l-13.992,27.832
		C616.577,91.271,613.233,92.968,609.425,92.968z"/>
	<path fill="#FFFFFF" d="M647.894,101.353V90.448h3.806c4.939-8.798,6.637-22.276,6.637-34.057h21.194v34.057h4.426v10.904h-1.957
		v-8.95h-32.15v8.95H647.894z M653.963,90.448h23.457V58.347h-17.078C660.084,69.458,658.388,82.216,653.963,90.448z"/>
	<path fill="#FFFFFF" d="M733.118,92.402V62.925c0-1.028,0-2.007,0-3.036l-25.155,32.513h-1.801V56.392h2.058v29.426
		c0,1.029,0,2.109,0,3.14l25.104-32.565h1.853v36.011H733.118z"/>
	<path fill="#FFFFFF" d="M757.691,92.402l11.01-14.146c-5.558-1.081-9.674-4.631-9.674-10.804c0-7.409,6.02-11.061,13.376-11.061
		h13.119v36.011h-2.009V78.563h-11.11c-0.515,0-0.977,0-1.44-0.05l-10.804,13.889H757.691z M772.354,76.609h11.16V58.347h-11.16
		c-6.328,0-11.216,2.983-11.216,9.105C761.138,73.625,766.025,76.609,772.354,76.609z"/>
</g>
</svg>
