<?xml version="1.0" encoding="utf-8"?>
<!-- Generator: Adobe Illustrator 16.0.0, SVG Export Plug-In . SVG Version: 6.00 Build 0)  -->
<!DOCTYPE svg PUBLIC "-//W3C//DTD SVG 1.1//EN" "http://www.w3.org/Graphics/SVG/1.1/DTD/svg11.dtd">
<svg version="1.1" id="Слой_1" xmlns="http://www.w3.org/2000/svg" xmlns:xlink="http://www.w3.org/1999/xlink" x="0px" y="0px"
	 width="960px" height="150px" viewBox="0 0 960 150" enable-background="new 0 0 960 150" xml:space="preserve">
<g>
	<path fill="#FFFFFF" d="M95.758,125.809h14.101v-99.97H95.758v-2.376h43.728v2.376h-14.101v99.97h33.904
		c8.873,0,9.665-8.396,12.992-28.992h2.535c0,0-2.376,13.941-2.376,31.369H95.758V125.809z"/>
	<path fill="#FFFFFF" d="M248.481,125.809h14.101v-99.97h-14.101v-2.376h45.628c37.073,0,52.758,19.962,52.758,50.698
		c0,29.943-14.576,54.025-52.758,54.025h-45.628V125.809z M294.427,125.809c23.765,0,35.489-17.269,35.489-49.905
		c0-34.063-11.724-50.065-35.489-50.065h-16.318v99.97H294.427z"/>
	<path fill="#FFFFFF" d="M375.226,125.809h14.101v-99.97h-14.101v-2.376h79.691c0,0-3.327,12.516-4.594,29.627h-2.376V35.978
		c0-9.823-1.584-10.14-7.13-10.14h-35.964V75.27h25.349V61.327h2.376v31.687h-2.376V77.646h-25.349v48.163h35.014
		c8.872,0,9.664-8.396,12.991-28.992h2.535c0,0-2.376,14.417-2.376,31.369h-77.791V125.809z"/>
	<path fill="#FFFFFF" d="M488.818,128.186c0,0,1.109-10.932,1.109-20.755V94.598h2.376v8.238c0,12.675,12.675,24.082,31.528,24.082
		c14.417,0,25.508-7.129,25.508-19.646c0-27.092-60.046-14.734-60.046-54.025c0-17.744,10.932-30.894,32.637-30.894
		c12.199,0,19.012,4.594,22.497,8.08c4.278-0.159,5.545-2.535,7.13-6.971h2.06c0,0-3.011,15.368-3.011,22.181v9.347h-2.376v-9.03
		c0-11.882-9.506-21.23-26.3-21.23c-16.16,0-24.874,8.397-24.874,21.23c0,26.933,60.046,13.784,60.046,53.233
		c0,15.368-10.298,30.103-33.271,30.103c-14.101,0-22.656-5.546-27.251-10.14c-3.326,0.634-5.069,5.703-5.703,9.03H488.818z"/>
	<path fill="#FFFFFF" d="M587.042,125.809h14.101v-99.97h-14.101v-2.376h43.728v2.376h-14.101v99.97h14.101v2.377h-43.728V125.809z"
		/>
	<path fill="#FFFFFF" d="M741.829,128.186c0,0-1.743-5.545-5.704-6.654c-5.228,3.961-13.467,7.764-29.468,7.764
		c-27.092,0-47.688-21.072-47.688-53.551c0-32.003,19.329-53.391,49.114-53.391c12.199,0,20.438,4.436,25.508,9.823
		c4.911,0,6.337-3.485,7.921-8.714h2.06c0,0-3.01,15.368-3.01,22.181v10.457h-2.377v-6.021c0-15.209-12.674-25.349-30.102-25.349
		c-27.25,0-32.162,26.617-32.162,52.124c0,28.359,8.397,50.064,30.736,50.064c8.555,0,23.289-2.693,23.289-16.477V87.311h-15.685
		v-2.377h39.291v2.377h-9.348v40.875H741.829z"/>
	<path fill="#FFFFFF" d="M778.582,125.809h4.753c6.971,0,9.506-3.485,9.506-9.506V33.126c-3.327-4.436-5.228-7.288-12.991-7.288
		h-2.852v-2.376h27.726l59.729,79.691V35.344c0-6.02-2.535-9.506-9.506-9.506h-4.753v-2.376h30.895v2.376h-4.911
		c-6.972,0-9.348,3.486-9.348,9.506v93.633h-2.377l-69.234-92.683v80.008c0,6.021,2.376,9.506,9.348,9.506h4.911v2.377h-30.895
		V125.809z"/>
</g>
</svg>
